<svg width="101" height="26" viewBox="0 0 101 26" fill="none" xmlns="http://www.w3.org/2000/svg">
<path d="M8.00193 14.2288H4.76171L0 0.112702H2.76123L3.15569 1.88778L6.36773 11.6648H6.50861L10.1151 2.02866L10.5096 0.112702H13.1863L8.00193 14.2288Z" fill="#1F3A5F"/>
<path d="M29.27 11.9747L29.4673 12.1719L29.2419 14.2288H20.1974L20.3101 10.0024L20.1974 0.112702H29.3264L29.4954 0.338109L29.2982 2.39494L25.7199 2.25406L22.9023 2.28224L22.8459 5.94509L25.5508 5.97327L28.0021 5.88874L28.143 6.11415L27.9739 8.19916L25.3254 8.11463L22.8178 8.1428L22.7896 9.74883L22.8459 12.0592L25.4663 12.0874L29.27 11.9747Z" fill="#1F3A5F"/>
<path d="M44.8889 12.2001L44.6917 14.2288H36.8588L36.9715 10.0024L36.8588 0.112702H39.62L39.4791 9.74883L39.5073 11.9747H44.7198L44.8889 12.2001Z" fill="#1F3A5F"/>
<path d="M63.4226 14.2288H60.6896L60.3233 12.4819L59.8161 10.9322L56.6604 10.904L53.8429 10.9322L53.3075 12.341L52.9131 14.2288H50.2364L55.5052 0.112702H58.6609L63.4226 14.2288ZM59.1117 8.81902L57.1112 2.64852H56.914L54.6318 8.81902L56.8577 8.8472L59.1117 8.81902Z" fill="#1F3A5F"/>
<path d="M75.7793 0C77.9394 0 79.5924 0.572908 80.7382 1.71872C81.9028 2.86454 82.4851 4.50813 82.4851 6.64949C82.4851 9.14774 81.8464 11.0637 80.5691 12.3973C79.2918 13.7122 77.4698 14.3697 75.103 14.3697C73.3186 14.3697 71.6092 14.3227 69.975 14.2288L70.0877 10.0024L69.975 0.112702L75.7793 0ZM75.5538 12.2565C76.8875 12.2565 77.9112 11.8432 78.625 11.0167C79.3388 10.1902 79.6957 8.94112 79.6957 7.26935C79.6957 5.52246 79.3576 4.25454 78.6814 3.46562C78.0051 2.65792 76.972 2.25406 75.582 2.25406C74.4174 2.25406 73.4501 2.29163 72.6799 2.36677L72.5672 9.74883L72.6236 12.0592C74.0324 12.1907 75.0091 12.2565 75.5538 12.2565Z" fill="#1F3A5F"/>
<path d="M100.369 14.2288H97.6362L97.2699 12.4819L96.7627 10.9322L93.6071 10.904L90.7895 10.9322L90.2541 12.341L89.8597 14.2288H87.183L92.4519 0.112702H95.6075L100.369 14.2288ZM96.0583 8.81902L94.0579 2.64852H93.8606L91.5784 8.81902L93.8043 8.8472L96.0583 8.81902Z" fill="#1F3A5F"/>
<path d="M19.978 25.0696V19.0723H23.8546V19.8198H20.8124V21.6537H23.42V22.4012H20.8124V24.3221H23.898V25.0696H19.978Z" fill="#9C3B2E"/>
<path d="M28.8532 24.2526L29.3399 23.6528C29.5949 23.8904 29.8817 24.0758 30.2004 24.2091C30.5249 24.3366 30.8813 24.4003 31.2695 24.4003C31.5418 24.4003 31.7678 24.3627 31.9474 24.2873C32.1329 24.212 32.2719 24.1135 32.3647 23.9918C32.4574 23.8643 32.5037 23.7282 32.5037 23.5833C32.5037 23.4269 32.4603 23.2849 32.3733 23.1574C32.2922 23.0241 32.1445 22.8967 31.9301 22.775C31.7215 22.6533 31.4259 22.5287 31.0435 22.4012C30.551 22.2332 30.1627 22.0622 29.8788 21.8884C29.6007 21.7088 29.4036 21.5147 29.2878 21.3061C29.1719 21.0975 29.1139 20.8686 29.1139 20.6194C29.1139 20.3181 29.1979 20.0458 29.366 19.8024C29.5398 19.5532 29.7803 19.3562 30.0874 19.2113C30.3945 19.0607 30.748 18.9854 31.1478 18.9854C31.4897 18.9854 31.8402 19.052 32.1995 19.1853C32.5588 19.3185 32.8775 19.504 33.1556 19.7415L32.6776 20.3673C32.4632 20.1587 32.2198 19.9965 31.9474 19.8806C31.6809 19.7647 31.3941 19.7068 31.087 19.7068C30.6987 19.7068 30.4061 19.7908 30.2091 19.9588C30.0179 20.1211 29.9223 20.3123 29.9223 20.5325C29.9223 20.66 29.9599 20.7817 30.0352 20.8975C30.1164 21.0134 30.2554 21.1264 30.4525 21.2365C30.6495 21.3408 30.9276 21.4509 31.2869 21.5668C31.8026 21.7291 32.2111 21.9116 32.5124 22.1144C32.8137 22.3114 33.031 22.5258 33.1643 22.7576C33.2976 22.9836 33.3642 23.2241 33.3642 23.479C33.3642 23.7861 33.2802 24.0672 33.1121 24.3221C32.9441 24.5771 32.6978 24.7799 32.3733 24.9305C32.0546 25.0812 31.6635 25.1565 31.2 25.1565C30.9102 25.1565 30.6176 25.1189 30.3221 25.0435C30.0324 24.9624 29.76 24.8552 29.505 24.7219C29.2501 24.5829 29.0328 24.4264 28.8532 24.2526Z" fill="#9C3B2E"/>
<path d="M38.0145 19.8198V19.0723H42.4995V19.8198H40.6742V25.0696H39.8398V19.8198H38.0145Z" fill="#9C3B2E"/>
<path d="M47.4553 22.8967V19.0723H48.2897V22.8097C48.2897 23.1458 48.3506 23.4327 48.4722 23.6702C48.5939 23.902 48.762 24.0787 48.9764 24.2004C49.1966 24.3221 49.4544 24.383 49.7499 24.383C50.0455 24.383 50.3033 24.3221 50.5235 24.2004C50.7437 24.0787 50.9117 23.902 51.0276 23.6702C51.1493 23.4327 51.2102 23.1458 51.2102 22.8097V19.0723H52.0272V22.8967C52.0272 23.3776 51.9258 23.789 51.723 24.1309C51.526 24.467 51.2536 24.7219 50.906 24.8958C50.5641 25.0696 50.1758 25.1565 49.7413 25.1565C49.3125 25.1565 48.9242 25.0696 48.5765 24.8958C48.2289 24.7219 47.9536 24.467 47.7508 24.1309C47.5538 23.789 47.4553 23.3776 47.4553 22.8967Z" fill="#9C3B2E"/>
<path d="M57.5904 25.0696V19.0723H59.5287C60.0444 19.0723 60.5109 19.1882 60.9281 19.4199C61.3453 19.6517 61.6756 19.9907 61.9189 20.4369C62.1681 20.8831 62.2927 21.4277 62.2927 22.0709C62.2927 22.7141 62.1681 23.2588 61.9189 23.705C61.6756 24.1512 61.3453 24.4902 60.9281 24.7219C60.5109 24.9537 60.0444 25.0696 59.5287 25.0696H57.5904ZM58.4248 24.3221H59.4852C59.8561 24.3221 60.1864 24.2352 60.4761 24.0614C60.7716 23.8875 61.0034 23.6326 61.1714 23.2965C61.3453 22.9604 61.4322 22.5519 61.4322 22.0709C61.4322 21.59 61.3453 21.1815 61.1714 20.8454C61.0034 20.5093 60.7716 20.2544 60.4761 20.0805C60.1864 19.9067 59.8561 19.8198 59.4852 19.8198H58.4248V24.3221Z" fill="#9C3B2E"/>
<path d="M67.4223 25.0696V24.3656H68.2915V19.7763H67.4223V19.0723H69.9951V19.7763H69.1259V24.3656H69.9951V25.0696H67.4223Z" fill="#9C3B2E"/>
<path d="M75.1237 22.0709C75.1237 21.5668 75.1904 21.1235 75.3237 20.7411C75.4627 20.3529 75.6539 20.0284 75.8973 19.7676C76.1407 19.5069 76.4217 19.3127 76.7404 19.1853C77.0591 19.052 77.3981 18.9854 77.7574 18.9854C78.1166 18.9854 78.4556 19.052 78.7743 19.1853C79.093 19.3127 79.374 19.5069 79.6174 19.7676C79.8608 20.0284 80.0491 20.3529 80.1824 20.7411C80.3214 21.1235 80.391 21.5668 80.391 22.0709C80.391 22.5751 80.3214 23.0212 80.1824 23.4095C80.0491 23.7919 79.8608 24.1135 79.6174 24.3743C79.374 24.635 79.093 24.832 78.7743 24.9653C78.4556 25.0928 78.1166 25.1565 77.7574 25.1565C77.3981 25.1565 77.0591 25.0928 76.7404 24.9653C76.4217 24.832 76.1407 24.635 75.8973 24.3743C75.6539 24.1135 75.4627 23.7919 75.3237 23.4095C75.1904 23.0212 75.1237 22.5751 75.1237 22.0709ZM75.9842 22.0709C75.9842 22.4534 76.0277 22.7895 76.1146 23.0792C76.2073 23.3689 76.3319 23.6123 76.4884 23.8093C76.6506 24.0005 76.8389 24.1454 77.0533 24.2439C77.2677 24.3366 77.5024 24.383 77.7574 24.383C78.0123 24.383 78.247 24.3366 78.4614 24.2439C78.6758 24.1454 78.8612 24.0005 79.0177 23.8093C79.1799 23.6123 79.3045 23.3689 79.3914 23.0792C79.4841 22.7895 79.5305 22.4534 79.5305 22.0709C79.5305 21.6885 79.4841 21.3524 79.3914 21.0627C79.3045 20.773 79.1799 20.5325 79.0177 20.3413C78.8612 20.1443 78.6758 19.9994 78.4614 19.9067C78.247 19.8082 78.0123 19.7589 77.7574 19.7589C77.5024 19.7589 77.2677 19.8082 77.0533 19.9067C76.8389 19.9994 76.6506 20.1443 76.4884 20.3413C76.3319 20.5325 76.2073 20.773 76.1146 21.0627C76.0277 21.3524 75.9842 21.6885 75.9842 22.0709Z" fill="#9C3B2E"/>
</svg>
