<svg width="178" height="48" viewBox="0 0 178 48" fill="none" xmlns="http://www.w3.org/2000/svg">
<path d="M14.1512 25.1632H8.42094L0 0.19931H4.88315L5.58074 3.33848L11.2611 20.6288H11.5103L17.8883 3.58762L18.5859 0.19931H23.3195L14.1512 25.1632Z" fill="#EFE6D5"/>
<path d="M51.7632 21.1769L52.112 21.5257L51.7133 25.1632H35.7185L35.9179 17.689L35.7185 0.19931H51.8628L52.1618 0.597935L51.813 4.23538L45.4848 3.98624L40.502 4.03607L40.4024 10.5137L45.1859 10.5635L49.5209 10.4141L49.77 10.8127L49.4711 14.5L44.7872 14.3505L40.3525 14.4003L40.3027 17.2405L40.4024 21.3264L45.0364 21.3762L51.7632 21.1769Z" fill="#EFE6D5"/>
<path d="M79.3847 21.5755L79.0358 25.1632H65.1837L65.383 17.689L65.1837 0.19931H70.0668L69.8177 17.2405L69.8675 21.1769H79.0857L79.3847 21.5755Z" fill="#EFE6D5"/>
<path d="M112.161 25.1632H107.328L106.68 22.0738L105.783 19.3333L100.202 19.2835L95.2195 19.3333L94.2727 21.8247L93.5751 25.1632H88.8415L98.1593 0.19931H103.74L112.161 25.1632ZM104.537 15.5962L101 4.68384H100.651L96.6146 15.5962L100.551 15.646L104.537 15.5962Z" fill="#EFE6D5"/>
<path d="M134.013 0C137.833 0 140.757 1.01317 142.783 3.03951C144.843 5.06585 145.872 7.97249 145.872 11.7594C145.872 16.1775 144.743 19.5658 142.484 21.9243C140.225 24.2497 137.003 25.4123 132.817 25.4123C129.662 25.4123 126.639 25.3293 123.749 25.1632L123.948 17.689L123.749 0.19931L134.013 0ZM133.615 21.6752C135.973 21.6752 137.784 20.9444 139.046 19.4828C140.308 18.0211 140.939 15.8121 140.939 12.8556C140.939 9.7663 140.341 7.52403 139.146 6.12885C137.95 4.70044 136.123 3.98624 133.665 3.98624C131.605 3.98624 129.894 4.05268 128.532 4.18555L128.333 17.2405L128.433 21.3264C130.924 21.5589 132.651 21.6752 133.615 21.6752Z" fill="#EFE6D5"/>
<path d="M177.5 25.1632H172.667L172.019 22.0738L171.122 19.3333L165.541 19.2835L160.558 19.3333L159.612 21.8247L158.914 25.1632H154.18L163.498 0.19931H169.079L177.5 25.1632ZM169.876 15.5962L166.339 4.68384H165.99L161.954 15.5962L165.89 15.646L169.876 15.5962Z" fill="#EFE6D5"/>
<path d="M35.3308 47.0562V36.4501H42.1864V37.772H36.8064V41.0153H41.4178V42.3373H36.8064V45.7343H42.2632V47.0562H35.3308Z" fill="#9C3B2E"/>
<path d="M51.0262 45.6113L51.887 44.5507C52.3379 44.9709 52.8451 45.2988 53.4088 45.5345C53.9826 45.7599 54.6128 45.8726 55.2994 45.8726C55.781 45.8726 56.1807 45.806 56.4984 45.6728C56.8263 45.5396 57.0722 45.3654 57.2362 45.1502C57.4001 44.9247 57.4821 44.6839 57.4821 44.4277C57.4821 44.1511 57.4053 43.9 57.2516 43.6746C57.1081 43.4389 56.8468 43.2134 56.4676 42.9982C56.0987 42.783 55.5761 42.5627 54.8998 42.3373C54.0287 42.0401 53.3422 41.7378 52.84 41.4304C52.3481 41.1127 51.9997 40.7694 51.7948 40.4005C51.5898 40.0316 51.4874 39.6268 51.4874 39.1862C51.4874 38.6533 51.636 38.1717 51.9331 37.7413C52.2406 37.3006 52.6658 36.9522 53.2089 36.696C53.7521 36.4296 54.3771 36.2964 55.0842 36.2964C55.6888 36.2964 56.3088 36.4142 56.9441 36.6499C57.5795 36.8856 58.1431 37.2135 58.635 37.6337L57.7895 38.7404C57.4104 38.3715 56.98 38.0846 56.4984 37.8796C56.027 37.6747 55.5197 37.5722 54.9766 37.5722C54.29 37.5722 53.7725 37.7208 53.4241 38.018C53.086 38.3049 52.9169 38.6431 52.9169 39.0325C52.9169 39.2579 52.9835 39.4731 53.1167 39.678C53.2602 39.883 53.5061 40.0828 53.8545 40.2775C54.2029 40.462 54.6948 40.6567 55.3302 40.8616C56.2422 41.1486 56.9646 41.4714 57.4975 41.83C58.0304 42.1784 58.4146 42.5576 58.6503 42.9675C58.886 43.3671 59.0039 43.7924 59.0039 44.2433C59.0039 44.7864 58.8553 45.2834 58.5581 45.7343C58.2609 46.1852 57.8254 46.5438 57.2516 46.8103C56.6879 47.0767 55.9962 47.2099 55.1764 47.2099C54.6641 47.2099 54.1466 47.1433 53.624 47.0101C53.1116 46.8666 52.63 46.6771 52.1791 46.4414C51.7282 46.1954 51.3439 45.9187 51.0262 45.6113Z" fill="#9C3B2E"/>
<path d="M67.2278 37.772V36.4501H75.1593V37.772H71.9314V47.0562H70.4558V37.772H67.2278Z" fill="#9C3B2E"/>
<path d="M83.9236 43.2134V36.4501H85.3992V43.0597C85.3992 43.6541 85.5068 44.1613 85.722 44.5815C85.9372 44.9914 86.2344 45.3039 86.6135 45.5191C87.0029 45.7343 87.4589 45.8419 87.9815 45.8419C88.5042 45.8419 88.9602 45.7343 89.3496 45.5191C89.739 45.3039 90.0362 44.9914 90.2411 44.5815C90.4563 44.1613 90.5639 43.6541 90.5639 43.0597V36.4501H92.0088V43.2134C92.0088 44.064 91.8295 44.7915 91.4708 45.3961C91.1224 45.9905 90.6408 46.4414 90.0259 46.7488C89.4213 47.0562 88.7347 47.2099 87.9662 47.2099C87.2079 47.2099 86.5213 47.0562 85.9064 46.7488C85.2916 46.4414 84.8048 45.9905 84.4462 45.3961C84.0978 44.7915 83.9236 44.064 83.9236 43.2134Z" fill="#9C3B2E"/>
<path d="M101.847 47.0562V36.4501H105.275C106.187 36.4501 107.012 36.655 107.75 37.0649C108.488 37.4748 109.072 38.0743 109.502 38.8634C109.943 39.6524 110.163 40.6157 110.163 41.7532C110.163 42.8906 109.943 43.8539 109.502 44.6429C109.072 45.432 108.488 46.0315 107.75 46.4414C107.012 46.8513 106.187 47.0562 105.275 47.0562H101.847ZM103.323 45.7343H105.198C105.854 45.7343 106.438 45.5806 106.95 45.2732C107.473 44.9657 107.883 44.5148 108.18 43.9205C108.488 43.3261 108.641 42.6037 108.641 41.7532C108.641 40.9026 108.488 40.1802 108.18 39.5858C107.883 38.9915 107.473 38.5406 106.95 38.2332C106.438 37.9257 105.854 37.772 105.198 37.772H103.323V45.7343Z" fill="#9C3B2E"/>
<path d="M119.235 47.0562V45.8111H120.772V37.6952H119.235V36.4501H123.785V37.6952H122.247V45.8111H123.785V47.0562H119.235Z" fill="#9C3B2E"/>
<path d="M132.854 41.7532C132.854 40.8616 132.972 40.0777 133.208 39.4014C133.454 38.7148 133.792 38.1409 134.222 37.6798C134.653 37.2187 135.15 36.8754 135.713 36.6499C136.277 36.4142 136.876 36.2964 137.512 36.2964C138.147 36.2964 138.747 36.4142 139.31 36.6499C139.874 36.8754 140.371 37.2187 140.801 37.6798C141.232 38.1409 141.565 38.7148 141.8 39.4014C142.046 40.0777 142.169 40.8616 142.169 41.7532C142.169 42.6447 142.046 43.4337 141.8 44.1203C141.565 44.7966 141.232 45.3654 140.801 45.8265C140.371 46.2877 139.874 46.6361 139.31 46.8718C138.747 47.0972 138.147 47.2099 137.512 47.2099C136.876 47.2099 136.277 47.0972 135.713 46.8718C135.15 46.6361 134.653 46.2877 134.222 45.8265C133.792 45.3654 133.454 44.7966 133.208 44.1203C132.972 43.4337 132.854 42.6447 132.854 41.7532ZM134.376 41.7532C134.376 42.4295 134.453 43.0238 134.607 43.5362C134.771 44.0486 134.991 44.479 135.268 44.8274C135.555 45.1656 135.888 45.4217 136.267 45.596C136.646 45.7599 137.061 45.8419 137.512 45.8419C137.963 45.8419 138.378 45.7599 138.757 45.596C139.136 45.4217 139.464 45.1656 139.741 44.8274C140.028 44.479 140.248 44.0486 140.402 43.5362C140.566 43.0238 140.648 42.4295 140.648 41.7532C140.648 41.0768 140.566 40.4825 140.402 39.9701C140.248 39.4577 140.028 39.0325 139.741 38.6943C139.464 38.3459 139.136 38.0897 138.757 37.9257C138.378 37.7515 137.963 37.6644 137.512 37.6644C137.061 37.6644 136.646 37.7515 136.267 37.9257C135.888 38.0897 135.555 38.3459 135.268 38.6943C134.991 39.0325 134.771 39.4577 134.607 39.9701C134.453 40.4825 134.376 41.0768 134.376 41.7532Z" fill="#9C3B2E"/>
</svg>
